{
  "header": { "PPQ": 96, "bpm": 128, "timeSignature": [4, 4], "name": "" },
  "startTime": 0,
  "duration": 90,
  "tracks": [
    {
      "startTime": 0,
      "duration": 0,
      "length": 0,
      "notes": [],
      "controlChanges": {},
      "id": 0
    },
    {
      "startTime": 0,
      "duration": 90,
      "length": 109,
      "notes": [
        {
          "name": "C5",
          "midi": 72,
          "time": 0,
          "velocity": 0.6299212598425197,
          "duration": 1.9921875
        },
        {
          "name": "D5",
          "midi": 74,
          "time": 1.875,
          "velocity": 0.6299212598425197,
          "duration": 1.0546875
        },
        {
          "name": "G4",
          "midi": 67,
          "time": 2.8125,
          "velocity": 0.6299212598425197,
          "duration": 1.5234375
        },
        {
          "name": "G5",
          "midi": 79,
          "time": 4.21875,
          "velocity": 0.6299212598425197,
          "duration": 0.8203125
        },
        {
          "name": "F5",
          "midi": 77,
          "time": 4.921875,
          "velocity": 0.6299212598425197,
          "duration": 0.3515625
        },
        {
          "name": "E5",
          "midi": 76,
          "time": 5.15625,
          "velocity": 0.6299212598425197,
          "duration": 0.3515625
        },
        {
          "name": "F5",
          "midi": 77,
          "time": 5.390625,
          "velocity": 0.6299212598425197,
          "duration": 0.5859375
        },
        {
          "name": "E5",
          "midi": 76,
          "time": 5.859375,
          "velocity": 0.6299212598425197,
          "duration": 0.5859375
        },
        {
          "name": "D5",
          "midi": 74,
          "time": 6.328125,
          "velocity": 0.6299212598425197,
          "duration": 0.5859375
        },
        {
          "name": "C5",
          "midi": 72,
          "time": 6.796875,
          "velocity": 0.6299212598425197,
          "duration": 4.3359375
        },
        {
          "name": "D5",
          "midi": 74,
          "time": 10.3125,
          "velocity": 0.6299212598425197,
          "duration": 0.46875
        },
        {
          "name": "B4",
          "midi": 71,
          "time": 11.015625,
          "velocity": 0.6299212598425197,
          "duration": 1.9921875
        },
        {
          "name": "C5",
          "midi": 72,
          "time": 12.421875,
          "velocity": 0.6299212598425197,
          "duration": 0.234375
        },
        {
          "name": "C5",
          "midi": 72,
          "time": 12.890625,
          "velocity": 0.6299212598425197,
          "duration": 2.109375
        },
        {
          "name": "C5",
          "midi": 72,
          "time": 15,
          "velocity": 0.6299212598425197,
          "duration": 2.109375
        },
        {
          "name": "D5",
          "midi": 74,
          "time": 16.875,
          "velocity": 0.6299212598425197,
          "duration": 1.0546875
        },
        {
          "name": "G4",
          "midi": 67,
          "time": 17.8125,
          "velocity": 0.6299212598425197,
          "duration": 1.5234375
        },
        {
          "name": "G5",
          "midi": 79,
          "time": 19.21875,
          "velocity": 0.6299212598425197,
          "duration": 0.8203125
        },
        {
          "name": "F5",
          "midi": 77,
          "time": 19.921875,
          "velocity": 0.6299212598425197,
          "duration": 0.3515625
        },
        {
          "name": "E5",
          "midi": 76,
          "time": 20.15625,
          "velocity": 0.6299212598425197,
          "duration": 0.3515625
        },
        {
          "name": "F5",
          "midi": 77,
          "time": 20.390625,
          "velocity": 0.6299212598425197,
          "duration": 0.5859375
        },
        {
          "name": "E5",
          "midi": 76,
          "time": 20.859375,
          "velocity": 0.6299212598425197,
          "duration": 0.5859375
        },
        {
          "name": "D5",
          "midi": 74,
          "time": 21.328125,
          "velocity": 0.6299212598425197,
          "duration": 0.5859375
        },
        {
          "name": "C5",
          "midi": 72,
          "time": 21.796875,
          "velocity": 0.6299212598425197,
          "duration": 2.9296875
        },
        {
          "name": "G5",
          "midi": 79,
          "time": 24.609375,
          "velocity": 0.6299212598425197,
          "duration": 1.2890625
        },
        {
          "name": "C5",
          "midi": 72,
          "time": 25.78125,
          "velocity": 0.6299212598425197,
          "duration": 1.640625
        },
        {
          "name": "G5",
          "midi": 79,
          "time": 27.36328125,
          "velocity": 0.6299212598425197,
          "duration": 0.17578125
        },
        {
          "name": "A5",
          "midi": 81,
          "time": 27.421875,
          "velocity": 0.6299212598425197,
          "duration": 0.3515625
        },
        {
          "name": "G5",
          "midi": 79,
          "time": 27.65625,
          "velocity": 0.6299212598425197,
          "duration": 0.3515625
        },
        {
          "name": "F5",
          "midi": 77,
          "time": 27.890625,
          "velocity": 0.6299212598425197,
          "duration": 0.5859375
        },
        {
          "name": "E5",
          "midi": 76,
          "time": 28.359375,
          "velocity": 0.6299212598425197,
          "duration": 0.5859375
        },
        {
          "name": "D5",
          "midi": 74,
          "time": 28.828125,
          "velocity": 0.6299212598425197,
          "duration": 0.5859375
        },
        {
          "name": "C5",
          "midi": 72,
          "time": 29.296875,
          "velocity": 0.6299212598425197,
          "duration": 2.9296875
        },
        {
          "name": "G5",
          "midi": 79,
          "time": 32.109375,
          "velocity": 0.6299212598425197,
          "duration": 1.2890625
        },
        {
          "name": "C5",
          "midi": 72,
          "time": 33.28125,
          "velocity": 0.6299212598425197,
          "duration": 1.93359375
        },
        {
          "name": "E5",
          "midi": 76,
          "time": 35.15625,
          "velocity": 0.6299212598425197,
          "duration": 0.29296875
        },
        {
          "name": "F5",
          "midi": 77,
          "time": 35.390625,
          "velocity": 0.6299212598425197,
          "duration": 0.52734375
        },
        {
          "name": "E5",
          "midi": 76,
          "time": 35.859375,
          "velocity": 0.6299212598425197,
          "duration": 0.3515625
        },
        {
          "name": "D5",
          "midi": 74,
          "time": 36.09375,
          "velocity": 0.6299212598425197,
          "duration": 0.3515625
        },
        {
          "name": "G5",
          "midi": 79,
          "time": 36.328125,
          "velocity": 0.6299212598425197,
          "duration": 0.5859375
        },
        {
          "name": "E5",
          "midi": 76,
          "time": 36.796875,
          "velocity": 0.6299212598425197,
          "duration": 1.7578125
        },
        {
          "name": "C5",
          "midi": 72,
          "time": 38.4375,
          "velocity": 0.6299212598425197,
          "duration": 4.6875
        },
        {
          "name": "G5",
          "midi": 79,
          "time": 39.375,
          "velocity": 0.6299212598425197,
          "duration": 1.0546875
        },
        {
          "name": "E5",
          "midi": 76,
          "time": 40.3125,
          "velocity": 0.6299212598425197,
          "duration": 0.9375
        },
        {
          "name": "G5",
          "midi": 79,
          "time": 42.421875,
          "velocity": 0.6299212598425197,
          "duration": 0.234375
        },
        {
          "name": "E5",
          "midi": 76,
          "time": 42.65625,
          "velocity": 0.6299212598425197,
          "duration": 0.234375
        },
        {
          "name": "G5",
          "midi": 79,
          "time": 42.890625,
          "velocity": 0.6299212598425197,
          "duration": 1.5234375
        },
        {
          "name": "C6",
          "midi": 84,
          "time": 44.296875,
          "velocity": 0.6299212598425197,
          "duration": 0.3515625
        },
        {
          "name": "B5",
          "midi": 83,
          "time": 44.53125,
          "velocity": 0.6299212598425197,
          "duration": 0.3515625
        },
        {
          "name": "C6",
          "midi": 84,
          "time": 44.765625,
          "velocity": 0.6299212598425197,
          "duration": 2.6953125
        },
        {
          "name": "B5",
          "midi": 83,
          "time": 47.34375,
          "velocity": 0.6299212598425197,
          "duration": 2.6953125
        },
        {
          "name": "C6",
          "midi": 84,
          "time": 49.921875,
          "velocity": 0.6299212598425197,
          "duration": 1.0546875
        },
        {
          "name": "B5",
          "midi": 83,
          "time": 50.15625,
          "velocity": 0.6299212598425197,
          "duration": 0.234375
        },
        {
          "name": "B5",
          "midi": 83,
          "time": 50.859375,
          "velocity": 0.6299212598425197,
          "duration": 0.3515625
        },
        {
          "name": "A5",
          "midi": 81,
          "time": 51.09375,
          "velocity": 0.6299212598425197,
          "duration": 0.3515625
        },
        {
          "name": "B5",
          "midi": 83,
          "time": 51.328125,
          "velocity": 0.6299212598425197,
          "duration": 0.3515625
        },
        {
          "name": "A5",
          "midi": 81,
          "time": 51.5625,
          "velocity": 0.6299212598425197,
          "duration": 0.29296875
        },
        {
          "name": "G5",
          "midi": 79,
          "time": 51.796875,
          "velocity": 0.6299212598425197,
          "duration": 0.29296875
        },
        {
          "name": "E5",
          "midi": 76,
          "time": 52.03125,
          "velocity": 0.6299212598425197,
          "duration": 0.29296875
        },
        {
          "name": "G5",
          "midi": 79,
          "time": 52.265625,
          "velocity": 0.6299212598425197,
          "duration": 0.29296875
        },
        {
          "name": "E5",
          "midi": 76,
          "time": 52.5,
          "velocity": 0.6299212598425197,
          "duration": 0.8203125
        },
        {
          "name": "D5",
          "midi": 74,
          "time": 53.203125,
          "velocity": 0.6299212598425197,
          "duration": 1.0546875
        },
        {
          "name": "C5",
          "midi": 72,
          "time": 54.140625,
          "velocity": 0.6299212598425197,
          "duration": 1.69921875
        },
        {
          "name": "D5",
          "midi": 74,
          "time": 55.78125,
          "velocity": 0.6299212598425197,
          "duration": 0.3515625
        },
        {
          "name": "F5",
          "midi": 77,
          "time": 56.015625,
          "velocity": 0.6299212598425197,
          "duration": 0.5859375
        },
        {
          "name": "E5",
          "midi": 76,
          "time": 56.484375,
          "velocity": 0.6299212598425197,
          "duration": 0.5859375
        },
        {
          "name": "D5",
          "midi": 74,
          "time": 56.953125,
          "velocity": 0.6299212598425197,
          "duration": 0.5859375
        },
        {
          "name": "E5",
          "midi": 76,
          "time": 57.421875,
          "velocity": 0.6299212598425197,
          "duration": 0.5859375
        },
        {
          "name": "D5",
          "midi": 74,
          "time": 57.890625,
          "velocity": 0.6299212598425197,
          "duration": 0.5859375
        },
        {
          "name": "C5",
          "midi": 72,
          "time": 58.359375,
          "velocity": 0.6299212598425197,
          "duration": 1.2890625
        },
        {
          "name": "B4",
          "midi": 71,
          "time": 59.53125,
          "velocity": 0.6299212598425197,
          "duration": 0.3515625
        },
        {
          "name": "C5",
          "midi": 72,
          "time": 59.765625,
          "velocity": 0.6299212598425197,
          "duration": 2.34375
        },
        {
          "name": "D5",
          "midi": 74,
          "time": 61.875,
          "velocity": 0.6299212598425197,
          "duration": 1.40625
        },
        {
          "name": "C5",
          "midi": 72,
          "time": 63.046875,
          "velocity": 0.6299212598425197,
          "duration": 0.5859375
        },
        {
          "name": "B4",
          "midi": 71,
          "time": 63.515625,
          "velocity": 0.6299212598425197,
          "duration": 1.40625
        },
        {
          "name": "C5",
          "midi": 72,
          "time": 64.8046875,
          "velocity": 0.6299212598425197,
          "duration": 9.78515625
        },
        {
          "name": "B4",
          "midi": 71,
          "time": 65.15625,
          "velocity": 0.6299212598425197,
          "duration": 0.234375
        },
        {
          "name": "G5",
          "midi": 79,
          "time": 66.5625,
          "velocity": 0.6299212598425197,
          "duration": 0.3515625
        },
        {
          "name": "F5",
          "midi": 77,
          "time": 66.9140625,
          "velocity": 0.6299212598425197,
          "duration": 0.3515625
        },
        {
          "name": "E5",
          "midi": 76,
          "time": 67.265625,
          "velocity": 0.6299212598425197,
          "duration": 0.234375
        },
        {
          "name": "D5",
          "midi": 74,
          "time": 67.55859375,
          "velocity": 0.6299212598425197,
          "duration": 0.5859375
        },
        {
          "name": "E5",
          "midi": 76,
          "time": 68.203125,
          "velocity": 0.6299212598425197,
          "duration": 1.875
        },
        {
          "name": "E5",
          "midi": 76,
          "time": 70.1953125,
          "velocity": 0.6299212598425197,
          "duration": 0.1171875
        },
        {
          "name": "G5",
          "midi": 79,
          "time": 70.3125,
          "velocity": 0.6299212598425197,
          "duration": 0.29296875
        },
        {
          "name": "F5",
          "midi": 77,
          "time": 70.60546875,
          "velocity": 0.6299212598425197,
          "duration": 0.41015625
        },
        {
          "name": "E5",
          "midi": 76,
          "time": 71.015625,
          "velocity": 0.6299212598425197,
          "duration": 0.234375
        },
        {
          "name": "D5",
          "midi": 74,
          "time": 71.30859375,
          "velocity": 0.6299212598425197,
          "duration": 0.5859375
        },
        {
          "name": "E5",
          "midi": 76,
          "time": 71.953125,
          "velocity": 0.6299212598425197,
          "duration": 0.703125
        },
        {
          "name": "B4",
          "midi": 71,
          "time": 74.53125,
          "velocity": 0.6299212598425197,
          "duration": 0.29296875
        },
        {
          "name": "C5",
          "midi": 72,
          "time": 74.765625,
          "velocity": 0.6299212598425197,
          "duration": 0.234375
        },
        {
          "name": "C6",
          "midi": 84,
          "time": 75,
          "velocity": 0.6299212598425197,
          "duration": 1.40625
        },
        {
          "name": "C6",
          "midi": 84,
          "time": 76.40625,
          "velocity": 0.6299212598425197,
          "duration": 0.46875
        },
        {
          "name": "B5",
          "midi": 83,
          "time": 76.875,
          "velocity": 0.6299212598425197,
          "duration": 1.640625
        },
        {
          "name": "B5",
          "midi": 83,
          "time": 78.515625,
          "velocity": 0.6299212598425197,
          "duration": 0.234375
        },
        {
          "name": "G5",
          "midi": 79,
          "time": 78.75,
          "velocity": 0.6299212598425197,
          "duration": 1.640625
        },
        {
          "name": "G5",
          "midi": 79,
          "time": 80.390625,
          "velocity": 0.6299212598425197,
          "duration": 0.234375
        },
        {
          "name": "A5",
          "midi": 81,
          "time": 80.625,
          "velocity": 0.6299212598425197,
          "duration": 1.58203125
        },
        {
          "name": "A5",
          "midi": 81,
          "time": 82.20703125,
          "velocity": 0.6299212598425197,
          "duration": 0.17578125
        },
        {
          "name": "B5",
          "midi": 83,
          "time": 82.32421875,
          "velocity": 0.6299212598425197,
          "duration": 0.17578125
        },
        {
          "name": "C6",
          "midi": 84,
          "time": 82.5,
          "velocity": 0.6299212598425197,
          "duration": 1.40625
        },
        {
          "name": "C6",
          "midi": 84,
          "time": 83.90625,
          "velocity": 0.6299212598425197,
          "duration": 0.46875
        },
        {
          "name": "B5",
          "midi": 83,
          "time": 84.375,
          "velocity": 0.6299212598425197,
          "duration": 1.640625
        },
        {
          "name": "B5",
          "midi": 83,
          "time": 86.015625,
          "velocity": 0.6299212598425197,
          "duration": 0.234375
        },
        {
          "name": "G5",
          "midi": 79,
          "time": 86.25,
          "velocity": 0.6299212598425197,
          "duration": 1.640625
        },
        {
          "name": "G5",
          "midi": 79,
          "time": 87.890625,
          "velocity": 0.6299212598425197,
          "duration": 0.234375
        },
        {
          "name": "C6",
          "midi": 84,
          "time": 88.125,
          "velocity": 0.6299212598425197,
          "duration": 0.9375
        },
        {
          "name": "C6",
          "midi": 84,
          "time": 89.0625,
          "velocity": 0.6299212598425197,
          "duration": 0.52734375
        },
        {
          "name": "B5",
          "midi": 83,
          "time": 89.53125,
          "velocity": 0.6299212598425197,
          "duration": 0.234375
        },
        {
          "name": "C6",
          "midi": 84,
          "time": 89.765625,
          "velocity": 0.6299212598425197,
          "duration": 0.234375
        }
      ],
      "controlChanges": {},
      "id": 1,
      "name": "Guitar 1",
      "channelNumber": 0,
      "isPercussion": false
    }
  ]
}
